<svg width="257" height="282" viewBox="0 0 257 282" fill="none" xmlns="http://www.w3.org/2000/svg">
<rect width="257" height="282" fill="white"/>
<rect x="89" y="35" width="90" height="74" fill="white"/>
<rect x="89" y="35" width="90" height="74" stroke="#14213D" stroke-width="6"/>
<rect x="89" y="35" width="90" height="74" stroke="#14213D" stroke-width="6"/>
<rect x="89" y="35" width="90" height="74" stroke="#14213D" stroke-width="6"/>
<rect x="89" y="35" width="90" height="74" stroke="#14213D" stroke-width="6"/>
<rect x="90" y="128" width="89" height="74" fill="white"/>
<rect x="90" y="128" width="89" height="74" stroke="#14213D" stroke-width="6"/>
<rect x="90" y="128" width="89" height="74" stroke="#14213D" stroke-width="6"/>
<rect x="90" y="128" width="89" height="74" stroke="#14213D" stroke-width="6"/>
<rect x="90" y="128" width="89" height="74" stroke="#14213D" stroke-width="6"/>
<rect x="111" y="109" width="48" height="19" fill="white"/>
<rect x="111" y="109" width="48" height="19" stroke="#14213D" stroke-width="6"/>
<rect x="111" y="109" width="48" height="19" stroke="#14213D" stroke-width="6"/>
<rect x="111" y="109" width="48" height="19" stroke="#14213D" stroke-width="6"/>
<rect x="111" y="109" width="48" height="19" stroke="#14213D" stroke-width="6"/>
<path d="M87.2849 144.695L62.5331 175.333L48 180.326M182.432 144.695L209 112.241V90M115.443 205.518V250H105.224M146.78 205.518V250H158.134" stroke="#14213D" stroke-width="5"/>
<path d="M129.93 82C132.721 78.2269 139.642 72.9445 145 82M105 82C107.791 78.2269 114.712 72.9446 120.07 82" stroke="#14213D" stroke-width="5"/>
<path d="M110.158 92C109.47 96.4149 110.674 104.125 121 99.6483" stroke="#14213D" stroke-width="4"/>
</svg>
