<svg width="178" height="242" viewBox="0 0 178 242" fill="none" xmlns="http://www.w3.org/2000/svg">
<rect width="178" height="242" fill="white"/>
<rect x="47" y="15" width="90" height="74" fill="white"/>
<rect x="47" y="15" width="90" height="74" stroke="#14213D" stroke-width="6"/>
<rect x="47" y="15" width="90" height="74" stroke="#14213D" stroke-width="6"/>
<rect x="47" y="15" width="90" height="74" stroke="#14213D" stroke-width="6"/>
<rect x="47" y="15" width="90" height="74" stroke="#14213D" stroke-width="6"/>
<rect x="48" y="108" width="89" height="74" fill="white"/>
<rect x="48" y="108" width="89" height="74" stroke="#14213D" stroke-width="6"/>
<rect x="48" y="108" width="89" height="74" stroke="#14213D" stroke-width="6"/>
<rect x="48" y="108" width="89" height="74" stroke="#14213D" stroke-width="6"/>
<rect x="48" y="108" width="89" height="74" stroke="#14213D" stroke-width="6"/>
<rect x="69" y="89" width="48" height="19" fill="white"/>
<rect x="69" y="89" width="48" height="19" stroke="#14213D" stroke-width="6"/>
<rect x="69" y="89" width="48" height="19" stroke="#14213D" stroke-width="6"/>
<rect x="69" y="89" width="48" height="19" stroke="#14213D" stroke-width="6"/>
<rect x="69" y="89" width="48" height="19" stroke="#14213D" stroke-width="6"/>
<path d="M48.5 121.5L20.5331 155.333L6 160.326M137.5 128L167 92.2411V70M73.4429 181V230H63.2243M104.78 181V230H116.134" stroke="#14213D" stroke-width="6"/>
<path d="M87.9302 62C90.7209 58.2269 97.6419 52.9445 103 62M63 62C65.7907 58.2269 72.7116 52.9446 78.0698 62" stroke="#14213D" stroke-width="5"/>
<path d="M68.158 72C67.4697 76.4149 68.6743 84.1254 79 79.6483" stroke="#14213D" stroke-width="4"/>
</svg>
