<svg width="165" height="169" viewBox="0 0 165 169" fill="none" xmlns="http://www.w3.org/2000/svg">
<rect x="42" y="3" width="90" height="81" fill="white"/>
<rect x="42" y="3" width="90" height="81" stroke="#14213D" stroke-width="6"/>
<rect x="42" y="3" width="90" height="81" stroke="#14213D" stroke-width="6"/>
<rect x="42" y="3" width="90" height="81" stroke="#14213D" stroke-width="6"/>
<rect x="42" y="3" width="90" height="81" stroke="#14213D" stroke-width="6"/>
<path d="M44 169V99H132V169" stroke="#14213D" stroke-width="6"/>
<rect x="64" y="84" width="48" height="15" fill="white"/>
<rect x="64" y="84" width="48" height="15" stroke="#14213D" stroke-width="6"/>
<rect x="64" y="84" width="48" height="15" stroke="#14213D" stroke-width="6"/>
<rect x="64" y="84" width="48" height="15" stroke="#14213D" stroke-width="6"/>
<rect x="64" y="84" width="48" height="15" stroke="#14213D" stroke-width="6"/>
<path d="M43.5 116.5L15.5331 150.333L1 155.326M132.5 123L162 87.2411V65" stroke="#14213D" stroke-width="6"/>
<path d="M82.9302 57C85.7209 53.2269 92.6419 47.9445 98 57M58 57C60.7907 53.2269 67.7116 47.9446 73.0698 57" stroke="#14213D" stroke-width="5"/>
<path d="M63.158 67C62.4697 71.4149 63.6743 79.1254 74 74.6483" stroke="#14213D" stroke-width="4"/>
<rect x="47" y="102" width="82" height="67" fill="white"/>
</svg>
