<svg width="153" height="276" viewBox="0 0 153 276" fill="none" xmlns="http://www.w3.org/2000/svg">
<rect x="35.5" y="25.5" width="85" height="87" stroke="white" stroke-width="5"/>
<rect x="35.5" y="25.5" width="85" height="87" stroke="white" stroke-width="5"/>
<rect x="35.5" y="25.5" width="85" height="87" stroke="white" stroke-width="5"/>
<rect x="35.5" y="25.5" width="85" height="87" stroke="white" stroke-width="5"/>
<rect x="35.5" y="125.5" width="85" height="94" stroke="white" stroke-width="5"/>
<rect x="35.5" y="125.5" width="85" height="94" stroke="white" stroke-width="5"/>
<rect x="35.5" y="125.5" width="85" height="94" stroke="white" stroke-width="5"/>
<rect x="35.5" y="125.5" width="85" height="94" stroke="white" stroke-width="5"/>
<rect x="54.5" y="113.5" width="47" height="11" stroke="white" stroke-width="5"/>
<rect x="54.5" y="113.5" width="47" height="11" stroke="white" stroke-width="5"/>
<rect x="54.5" y="113.5" width="47" height="11" stroke="white" stroke-width="5"/>
<rect x="54.5" y="113.5" width="47" height="11" stroke="white" stroke-width="5"/>
<path d="M35.5 158.5L15.6807 22.6547L2 6.23049M121 158.5L140.05 19.1708L150 2M59.261 221.942V273H49.5675M88.9876 221.942V273H99.7581" stroke="white" stroke-width="5"/>
<path d="M81.6558 82C85.4233 77.4723 94.7665 71.1334 102 82M48 82C51.7674 77.4723 61.1107 71.1335 68.3442 82" stroke="white" stroke-width="5"/>
<path d="M55.2155 90C54.2768 95.8865 55.9195 106.167 70 100.198" stroke="white" stroke-width="5"/>
</svg>
