<svg width="929" height="350" viewBox="0 0 929 350" fill="none" xmlns="http://www.w3.org/2000/svg">
<path d="M754.406 287.4H839.504C850.551 287.4 858.913 277.8 858.913 267.3L858.615 182.1C858.615 171.3 849.955 162.9 839.206 162.6H754.406C743.656 162.6 735.296 171 734.699 181.5V267.3C734.699 278.4 743.656 287.4 754.406 287.4ZM735.595 316.2L693.194 189C692.299 186 692 184.2 692 182.1C692 176.7 694.389 171.6 697.972 168.3L740.372 125.7C743.955 122.1 749.031 120 754.406 120H839.206C844.88 120 849.656 122.1 853.239 125.7L895.34 168C898.923 171.6 901.014 176.7 901.014 182.1C901.014 184.2 900.716 186.3 900.119 188.4L857.717 316.2V316.5C855.33 324 847.866 330 839.206 330H754.406C745.746 330 738.282 324 735.595 316.2Z" fill="#FBFBFB" stroke="#FBFBFB"/>
<path d="M248.319 293.586C248.662 292.919 249.349 292.5 250.098 292.5H259.575C261.047 292.5 262.015 294.037 261.378 295.365L241.714 336.365C241.381 337.059 240.68 337.5 239.91 337.5H229.029C227.532 337.5 226.566 335.917 227.25 334.586L248.319 293.586Z" fill="#5F27DE"/>
<path d="M477.185 293.586C476.843 292.919 476.156 292.5 475.407 292.5H465.93C464.457 292.5 463.49 294.037 464.127 295.365L483.791 336.365C484.124 337.059 484.825 337.5 485.595 337.5H496.476C497.972 337.5 498.939 335.917 498.255 334.586L477.185 293.586Z" fill="#86C9B1"/>
<path d="M186.062 23.5996H538.285V287.066H186.062V23.5996Z" fill="white"/>
<path d="M171 293.554C171 289.978 174.14 287.079 178.014 287.079H547.491C551.365 287.079 554.505 289.978 554.505 293.554V293.554C554.505 297.13 551.365 300.029 547.491 300.029H178.014C174.14 300.029 171 297.13 171 293.554V293.554Z" fill="url(#paint0_linear_1487_5379)"/>
<path d="M171 20.4748C171 16.8989 174.14 14 178.014 14H547.491C551.365 14 554.505 16.8989 554.505 20.4748V20.4748C554.505 24.0507 551.365 26.9496 547.491 26.9496H178.014C174.14 26.9496 171 24.0507 171 20.4748V20.4748Z" fill="url(#paint1_linear_1487_5379)"/>
<path d="M355.815 124.661C336.018 124.661 311.442 119.888 298.273 136.326C284.414 153.624 290.018 184.686 290.652 204.941C291.526 232.885 315.597 241.994 342.096 241.994C391.964 241.994 439.896 179.315 431.076 135.639C426.906 114.988 395.218 109.773 376.583 117.113C368.903 120.138 362.674 122.849 362.674 130.836C362.674 131.925 359.559 136.566 357.741 130.836C353.697 118.093 337.521 74.229 355.815 65.9941" stroke="#030303" stroke-width="3.2" stroke-linecap="round"/>
<path d="M381.51 82.9802C360.425 87.0875 348.551 118.2 360.082 131.366C368.127 112.257 384.306 114.71 390.546 109.24C400.677 100.359 397.36 89.7676 397.36 78.1771C397.36 57.5645 384.296 82.4373 381.51 82.9802Z" stroke="#030303" stroke-width="3.2" stroke-linecap="round"/>
<path d="M219.153 65.8207C220.814 64.8152 222.959 65.32 223.945 66.9483V66.9483C224.931 68.5766 224.384 70.7117 222.723 71.7173L14.5771 197.737C12.9162 198.742 10.7706 198.237 9.78482 196.609V196.609C8.79899 194.981 9.34622 192.846 11.0071 191.84L219.153 65.8207Z" fill="#EC9F7F"/>
<path d="M0 310.144L4.71414 65.8567C4.71414 50.4279 16.7139 38 32.572 38C48.4285 38 60.8567 50.4279 60.8567 65.8567C60.8567 77.8566 53.1426 87.714 42.4282 92.4281L22.2853 101C11.5718 105.285 4.71414 115.572 4.71414 127.143C4.71414 130.143 4.71414 132.714 7.28578 140.429L59.5711 302.001C60.4284 304.571 60.8567 307.143 60.8567 310.144C60.8567 325.571 48.4285 338 32.572 338H27.8566C12.4719 338 0 325.528 0 310.144Z" fill="#FBFBFB"/>
<defs>
<linearGradient id="paint0_linear_1487_5379" x1="151.132" y1="284.566" x2="534.637" y2="284.566" gradientUnits="userSpaceOnUse">
<stop stop-color="#1F60DE"/>
<stop offset="0.25" stop-color="#681FDE"/>
<stop offset="0.5" stop-color="#EC526D"/>
<stop offset="0.75" stop-color="#EEC589"/>
<stop offset="1" stop-color="#1CCEDA"/>
</linearGradient>
<linearGradient id="paint1_linear_1487_5379" x1="151.132" y1="11.4868" x2="534.637" y2="11.4868" gradientUnits="userSpaceOnUse">
<stop stop-color="#1F60DE"/>
<stop offset="0.25" stop-color="#681FDE"/>
<stop offset="0.5" stop-color="#EC526D"/>
<stop offset="0.75" stop-color="#EEC589"/>
<stop offset="1" stop-color="#1CCEDA"/>
</linearGradient>
</defs>
</svg>
