<svg width="1209" height="513" viewBox="0 0 1209 513" fill="none" xmlns="http://www.w3.org/2000/svg">
<rect width="6.57177" height="125.853" rx="3.28589" transform="matrix(0.700619 -0.713536 0.773088 0.634299 443.985 433.172)" fill="#1BC0D2"/>
<rect width="6.57177" height="125.853" rx="3.28589" transform="matrix(0.700617 0.713537 -0.77309 0.634297 454.429 428.48)" fill="#1BC0D2"/>
<path d="M448.121 290.784C448.121 288.881 449.664 287.338 451.568 287.338V287.338C453.471 287.338 455.014 288.881 455.014 290.784V509.468C455.014 511.372 453.471 512.915 451.568 512.915V512.915C449.664 512.915 448.121 511.372 448.121 509.468V400.126V290.784Z" fill="#1BC0D2"/>
<mask id="path-4-inside-1_968_795" fill="white">
<path d="M226 11H661.642V331.092H226V11Z"/>
</mask>
<path d="M226 11H661.642V331.092H226V11Z" fill="#FBFBFB"/>
<path d="M660.642 11V331.092H662.642V11H660.642ZM227 331.092V11H225V331.092H227Z" fill="black" mask="url(#path-4-inside-1_968_795)"/>
<path d="M211 335.821C211 330.949 214.949 327 219.821 327H679.179C684.051 327 688 330.949 688 335.821V335.821C688 340.693 684.051 344.643 679.179 344.643H219.821C214.949 344.643 211 340.693 211 335.821V335.821Z" fill="url(#paint0_linear_968_795)"/>
<rect x="211" width="477" height="17.6429" rx="8.82144" fill="url(#paint1_linear_968_795)"/>
<ellipse cx="451.568" cy="432.891" rx="11.7182" ry="10.7118" fill="#605E5E"/>
<rect x="303.452" y="140" width="6.89306" height="353.236" rx="3.44653" transform="rotate(53.0933 303.452 140)" fill="#151CDB"/>
<path d="M1019.61 272.228H1129.54C1143.81 272.228 1154.62 259.885 1154.62 246.386L1154.23 136.843C1154.23 122.957 1143.04 112.157 1129.16 111.771H1019.61C1005.73 111.771 994.929 122.572 994.157 136.072V246.386C994.157 260.657 1005.73 272.228 1019.61 272.228ZM995.315 309.257L940.543 145.715C939.386 141.857 939 139.543 939 136.843C939 129.9 942.086 123.342 946.714 119.1L1001.49 64.3287C1006.11 59.7 1012.67 57 1019.61 57H1129.16C1136.49 57 1142.66 59.7 1147.29 64.3287L1201.67 118.715C1206.3 123.342 1209 129.9 1209 136.843C1209 139.543 1208.61 142.242 1207.84 144.943L1153.07 309.257V309.643C1149.99 319.286 1140.34 327 1129.16 327H1019.61C1008.43 327 998.786 319.286 995.315 309.257Z" fill="#FBFBFB"/>
<path d="M0 475.858L6.28552 150.142C6.28552 129.57 22.2852 113 43.4294 113C64.5713 113 81.1422 129.57 81.1422 150.142C81.1422 166.142 70.8568 179.285 56.571 185.571L29.7137 197C15.4291 202.714 6.28552 216.429 6.28552 231.857C6.28552 235.858 6.28552 239.285 9.71437 249.571L79.4282 465.001C80.5712 468.428 81.1422 471.857 81.1422 475.858C81.1422 496.428 64.5713 513 43.4294 513H37.1421C16.6292 513 0 496.371 0 475.858Z" fill="#FBFBFB"/>
<path d="M435.355 114.333C413.916 114.333 387.303 108.937 373.042 127.522C358.034 147.081 364.102 182.202 364.788 205.105C365.735 236.7 391.803 247 420.499 247C474.501 247 526.409 176.13 516.857 126.747C512.341 103.397 478.025 97.5002 457.845 105.799C449.529 109.22 442.783 112.285 442.783 121.316C442.783 122.547 441.244 139.82 439.275 133.341C434.896 118.933 415.544 57.311 435.355 48" stroke="black" stroke-width="3" stroke-linecap="round"/>
<path d="M435.355 131.789C435.355 114.252 440.978 77.2758 463.21 72.6318C466.148 72.018 479.923 43.8947 479.923 67.201C479.923 80.3062 482.352 93.0415 471.67 103.083C460.614 113.476 438.689 115.047 431.641 128.297" stroke="black" stroke-width="3" stroke-linecap="round"/>
<rect x="795.5" y="179.5" width="167" height="165" fill="#FBFBFB" stroke="black"/>
<path d="M875.258 208C876.54 210.671 876.753 215.399 876.827 218.332C876.914 221.82 877.802 224.233 879.005 227.454C879.731 229.398 879.179 232.27 879.179 234.315C879.179 238.319 879.405 238.513 874.91 238.513C870.354 238.513 865.691 238.265 861.143 238.513C859.913 238.58 860.092 242.055 860.533 242.872C862.083 245.743 865.216 244.714 865.064 248.523C864.931 251.857 860.52 255.046 863.67 258.694C866.577 262.06 864.736 266.938 866.981 270.318C867.61 271.265 868.292 271.697 869.333 271.972C870.081 272.17 869.695 273.565 869.943 274.112C870.869 276.149 870.553 278.462 870.553 280.65C870.553 283.692 869.802 284.368 867.416 286.462C865.298 288.321 863.854 290.014 861.883 291.991C854.469 299.433 871.019 300.992 875.694 300.992C878.686 300.992 881.677 300.992 884.669 300.992C886.141 300.992 893.97 301.169 894.776 299.862C897.535 295.389 898 289.139 898 283.96C898 280.342 896.664 279.257 892.99 277.744C892.194 277.416 898 273.265 898 271.569C898 269.137 891.195 266.505 889.33 265.353C887.42 264.173 884.312 262.338 883.275 260.308C882.668 259.122 884.959 258.612 885.366 257.765C887.343 253.644 883.592 249.941 889.417 247.917C893.535 246.486 901.601 240.657 892.946 239.199C890.749 238.829 889.041 238.513 886.673 238.513C885.678 238.513 879.812 238.513 882.316 238.513" stroke="black" stroke-width="3" stroke-linecap="round"/>
<defs>
<linearGradient id="paint0_linear_968_795" x1="211" y1="335.732" x2="688" y2="335.732" gradientUnits="userSpaceOnUse">
<stop stop-color="#151CDB"/>
<stop offset="0.25" stop-color="#6B2EAC"/>
<stop offset="0.5" stop-color="#FD595D"/>
<stop offset="0.74505" stop-color="#BEA97E"/>
<stop offset="1" stop-color="#1BC0D2"/>
</linearGradient>
<linearGradient id="paint1_linear_968_795" x1="211" y1="8.73234" x2="688" y2="8.73234" gradientUnits="userSpaceOnUse">
<stop stop-color="#151CDB"/>
<stop offset="0.25" stop-color="#6B2EAC"/>
<stop offset="0.5" stop-color="#FD595D"/>
<stop offset="0.74505" stop-color="#BEA97E"/>
<stop offset="1" stop-color="#1BC0D2"/>
</linearGradient>
</defs>
</svg>
