<svg width="911" height="327" viewBox="0 0 911 327" fill="none" xmlns="http://www.w3.org/2000/svg">
<path d="M762 207.994H847.909C859.061 207.994 867.503 198.303 867.503 187.703L867.202 101.692C867.202 90.7886 858.459 82.3087 847.608 82.0054H762C751.148 82.0054 742.708 90.4862 742.105 101.086V187.703C742.105 198.908 751.148 207.994 762 207.994ZM743.01 237.068L700.206 108.657C699.302 105.629 699 103.811 699 101.692C699 96.2397 701.412 91.0911 705.028 87.7598L747.833 44.7544C751.45 41.12 756.575 39 762 39H847.608C853.336 39 858.158 41.12 861.775 44.7544L904.277 87.4573C907.894 91.0911 910.005 96.2397 910.005 101.692C910.005 103.811 909.703 105.931 909.101 108.052L866.296 237.068V237.372C863.886 244.943 856.35 251 847.608 251H762C753.258 251 745.723 244.943 743.01 237.068Z" fill="#FBFBFB" stroke="#FBFBFB"/>
<path d="M402.623 269.659C401.648 268.868 401.575 267.504 402.46 266.613V266.613C403.344 265.722 404.852 265.641 405.827 266.432L473.662 321.473C474.637 322.264 474.71 323.627 473.825 324.518V324.518C472.941 325.409 471.433 325.49 470.458 324.699L402.623 269.659Z" fill="#6EC8CA"/>
<rect width="4.54703" height="92.1643" rx="2.27351" transform="matrix(0.704579 0.709625 -0.776538 0.63007 272.558 265)" fill="#6EC8CA"/>
<rect x="187" y="12" width="304" height="247" fill="#F2F0F0"/>
<rect x="177" y="256.012" width="331.904" height="12.1402" rx="6.07012" fill="url(#paint0_linear_1158_2569)"/>
<rect x="177" width="331.904" height="12.1402" rx="6.07012" fill="url(#paint1_linear_1158_2569)"/>
<path d="M338.95 106.333C322.076 106.333 301.129 102.32 289.904 116.142C278.091 130.688 282.868 156.809 283.408 173.842C284.153 197.34 304.671 205 327.257 205C369.762 205 410.619 152.292 403.1 115.565C399.546 98.1996 372.536 93.8142 356.652 99.9864C350.106 102.53 344.797 104.81 344.797 111.526C344.797 112.442 343.586 125.288 342.036 120.47C338.589 109.754 323.358 63.9248 338.95 57" stroke="black" stroke-width="3" stroke-linecap="round"/>
<path d="M338.95 119.316C338.95 106.274 343.376 78.7736 360.875 75.3197C363.188 74.8632 374.03 53.9475 374.03 71.2808C374.03 81.0274 375.942 90.4988 367.533 97.9669C358.832 105.696 341.574 106.865 336.027 116.719" stroke="black" stroke-width="3" stroke-linecap="round"/>
<rect x="228.839" y="84" width="6.89306" height="245.442" rx="3.44653" transform="rotate(55.7331 228.839 84)" fill="#FC8586"/>
<path d="M0 295.144L4.71414 50.8567C4.71414 35.4279 16.7139 23 32.572 23C48.4285 23 60.8567 35.4279 60.8567 50.8567C60.8567 62.8566 53.1426 72.714 42.4282 77.4281L22.2853 86.0003C11.5718 90.2852 4.71414 100.572 4.71414 112.143C4.71414 115.143 4.71414 117.714 7.28578 125.429L59.5711 287.001C60.4284 289.571 60.8567 292.143 60.8567 295.144C60.8567 310.571 48.4285 323 32.572 323H27.8566C12.4719 323 0 310.528 0 295.144Z" fill="#FBFBFB"/>
<defs>
<linearGradient id="paint0_linear_1158_2569" x1="177" y1="262.021" x2="508.904" y2="262.021" gradientUnits="userSpaceOnUse">
<stop stop-color="#6165E1"/>
<stop offset="0.25" stop-color="#8153B2"/>
<stop offset="0.5" stop-color="#FF8386"/>
<stop offset="0.74505" stop-color="#C9BA9B"/>
<stop offset="1" stop-color="#50CDDA"/>
</linearGradient>
<linearGradient id="paint1_linear_1158_2569" x1="177" y1="6.0088" x2="508.904" y2="6.00881" gradientUnits="userSpaceOnUse">
<stop stop-color="#6165E1"/>
<stop offset="0.25" stop-color="#8153B2"/>
<stop offset="0.5" stop-color="#FF8386"/>
<stop offset="0.74505" stop-color="#C9BA9B"/>
<stop offset="1" stop-color="#50CDDA"/>
</linearGradient>
</defs>
</svg>
