<svg width="929" height="350" viewBox="0 0 929 350" fill="none" xmlns="http://www.w3.org/2000/svg">
<path d="M781.406 216.4H866.504C877.551 216.4 885.913 206.8 885.913 196.3L885.615 111.1C885.615 100.3 876.955 91.9001 866.206 91.5997H781.406C770.656 91.5997 762.296 100 761.699 110.5V196.3C761.699 207.4 770.656 216.4 781.406 216.4ZM762.595 245.2L720.194 118C719.299 115 719 113.2 719 111.1C719 105.7 721.389 100.6 724.972 97.2998L767.372 54.7001C770.955 51.1 776.031 49 781.406 49H866.206C871.88 49 876.656 51.1 880.239 54.7001L922.34 97.0002C925.923 100.6 928.014 105.7 928.014 111.1C928.014 113.2 927.716 115.3 927.119 117.4L884.717 245.2V245.5C882.33 253 874.866 259 866.206 259H781.406C772.746 259 765.282 253 762.595 245.2Z" fill="#FBFBFB" stroke="#FBFBFB"/>
<path d="M248.319 293.586C248.662 292.919 249.349 292.5 250.098 292.5H259.575C261.047 292.5 262.015 294.037 261.378 295.365L241.714 336.365C241.381 337.059 240.68 337.5 239.91 337.5H229.029C227.532 337.5 226.566 335.917 227.25 334.586L248.319 293.586Z" fill="#5F27DE"/>
<path d="M477.185 293.586C476.843 292.919 476.156 292.5 475.407 292.5H465.93C464.457 292.5 463.49 294.037 464.127 295.365L483.791 336.365C484.124 337.059 484.825 337.5 485.595 337.5H496.476C497.972 337.5 498.939 335.917 498.255 334.586L477.185 293.586Z" fill="#86C9B1"/>
<path d="M186.062 23.5996H538.285V287.066H186.062V23.5996Z" fill="white"/>
<path d="M171 293.554C171 289.978 174.14 287.079 178.014 287.079H547.491C551.365 287.079 554.505 289.978 554.505 293.554V293.554C554.505 297.13 551.365 300.029 547.491 300.029H178.014C174.14 300.029 171 297.13 171 293.554V293.554Z" fill="url(#paint0_linear_1487_5462)"/>
<path d="M171 20.4748C171 16.8989 174.14 14 178.014 14H547.491C551.365 14 554.505 16.8989 554.505 20.4748V20.4748C554.505 24.0507 551.365 26.9496 547.491 26.9496H178.014C174.14 26.9496 171 24.0507 171 20.4748V20.4748Z" fill="url(#paint1_linear_1487_5462)"/>
<path d="M355.815 124.661C336.018 124.661 311.442 119.888 298.273 136.326C284.414 153.624 290.018 184.686 290.652 204.941C291.526 232.885 315.597 241.994 342.096 241.994C391.964 241.994 439.896 179.315 431.076 135.639C426.906 114.988 395.218 109.773 376.583 117.113C368.903 120.138 362.674 122.849 362.674 130.836C362.674 131.925 359.559 136.566 357.741 130.836C353.697 118.093 337.521 74.229 355.815 65.9941" stroke="#030303" stroke-width="3.2" stroke-linecap="round"/>
<path d="M381.51 82.9807C360.425 87.088 348.551 118.2 360.082 131.366C368.127 112.258 384.306 114.71 390.546 109.24C400.677 100.359 397.36 89.7681 397.36 78.1776C397.36 57.565 384.296 82.4378 381.51 82.9807Z" stroke="#030303" stroke-width="3.2" stroke-linecap="round"/>
<path d="M219.153 65.8207C220.814 64.8152 222.959 65.32 223.945 66.9483V66.9483C224.931 68.5766 224.384 70.7117 222.723 71.7173L14.5771 197.737C12.9162 198.742 10.7706 198.237 9.78482 196.609V196.609C8.79899 194.981 9.34622 192.846 11.0071 191.84L219.153 65.8207Z" fill="#EC9F7F"/>
<path d="M0 310.144L4.71414 65.8567C4.71414 50.4279 16.7139 38 32.572 38C48.4285 38 60.8567 50.4279 60.8567 65.8567C60.8567 77.8566 53.1426 87.714 42.4282 92.4281L22.2853 101C11.5718 105.285 4.71414 115.572 4.71414 127.143C4.71414 130.143 4.71414 132.714 7.28578 140.429L59.5711 302.001C60.4284 304.571 60.8567 307.143 60.8567 310.144C60.8567 325.571 48.4285 338 32.572 338H27.8566C12.4719 338 0 325.528 0 310.144Z" fill="#FBFBFB"/>
<path d="M626 142C626 136.477 630.477 132 636 132H735C740.523 132 745 136.477 745 142V259C745 264.523 740.523 269 735 269H636C630.477 269 626 264.523 626 259V142Z" fill="#FBFBFB" stroke="#3687FF" stroke-width="6"/>
<path d="M681.652 153C682.799 155.757 682.99 160.637 683.055 163.666C683.134 167.266 683.928 169.757 685.005 173.082C685.654 175.088 685.16 178.053 685.16 180.164C685.16 184.297 685.362 184.497 681.34 184.497C677.264 184.497 673.092 184.241 669.023 184.497C667.922 184.566 668.082 188.153 668.477 188.997C669.863 191.961 672.667 190.899 672.531 194.83C672.412 198.271 668.465 201.564 671.283 205.329C673.884 208.804 672.237 213.839 674.246 217.328C674.809 218.306 675.419 218.752 676.351 219.036C677.02 219.24 676.674 220.68 676.897 221.244C677.725 223.347 677.442 225.735 677.442 227.994C677.442 231.134 676.77 231.832 674.636 233.993C672.74 235.912 671.448 237.66 669.685 239.701C663.052 247.382 677.859 248.992 682.042 248.992C684.719 248.992 687.395 248.992 690.072 248.992C691.389 248.992 698.394 249.174 699.115 247.825C701.584 243.208 702 236.757 702 231.41C702 227.676 700.804 226.555 697.517 224.994C696.805 224.656 702 220.37 702 218.619C702 216.109 695.911 213.392 694.243 212.203C692.533 210.985 689.753 209.091 688.825 206.995C688.282 205.771 690.332 205.245 690.696 204.371C692.465 200.116 689.109 196.294 694.321 194.205C698.005 192.728 705.222 186.71 697.478 185.206C695.512 184.824 693.984 184.497 691.865 184.497C690.975 184.497 682.92 184.497 685.16 184.497" stroke="black" stroke-width="3.2" stroke-linecap="round"/>
<defs>
<linearGradient id="paint0_linear_1487_5462" x1="151.132" y1="284.566" x2="534.637" y2="284.566" gradientUnits="userSpaceOnUse">
<stop stop-color="#1F60DE"/>
<stop offset="0.25" stop-color="#681FDE"/>
<stop offset="0.5" stop-color="#EC526D"/>
<stop offset="0.75" stop-color="#EEC589"/>
<stop offset="1" stop-color="#1CCEDA"/>
</linearGradient>
<linearGradient id="paint1_linear_1487_5462" x1="151.132" y1="11.4868" x2="534.637" y2="11.4868" gradientUnits="userSpaceOnUse">
<stop stop-color="#1F60DE"/>
<stop offset="0.25" stop-color="#681FDE"/>
<stop offset="0.5" stop-color="#EC526D"/>
<stop offset="0.75" stop-color="#EEC589"/>
<stop offset="1" stop-color="#1CCEDA"/>
</linearGradient>
</defs>
</svg>
