<svg width="1072" height="513" viewBox="0 0 1072 513" fill="none" xmlns="http://www.w3.org/2000/svg">
<rect width="6.57177" height="125.853" rx="3.28589" transform="matrix(0.700619 -0.713536 0.773088 0.634299 443.985 433.172)" fill="#7F7F7F"/>
<rect width="6.57177" height="125.853" rx="3.28589" transform="matrix(0.700617 0.713537 -0.77309 0.634297 454.429 428.48)" fill="#7F7F7F"/>
<rect x="448.121" y="287.338" width="6.89306" height="225.577" rx="3.44653" fill="#7F7F7F"/>
<rect x="226" y="11" width="435.642" height="320.092" fill="#D9D9D9"/>
<rect x="211" y="327" width="477" height="17.6429" rx="8.82144" fill="#7F7F7F"/>
<rect x="211" width="477" height="17.6429" rx="8.82144" fill="#7F7F7F"/>
<ellipse cx="451.568" cy="432.891" rx="11.7182" ry="10.7118" fill="#605E5E"/>
<rect x="303.452" y="140" width="6.89306" height="353.236" rx="3.44653" transform="rotate(53.0933 303.452 140)" fill="#7F7F7F"/>
<path d="M882.614 434.228H992.543C1006.81 434.228 1017.62 421.885 1017.62 408.386L1017.23 298.843C1017.23 284.957 1006.04 274.157 992.157 273.771H882.614C868.728 273.771 857.929 284.572 857.157 298.072V408.386C857.157 422.657 868.728 434.228 882.614 434.228ZM858.315 471.257L803.543 307.715C802.386 303.857 802 301.543 802 298.843C802 291.9 805.086 285.342 809.714 281.1L864.486 226.329C869.115 221.7 875.672 219 882.614 219H992.157C999.487 219 1005.66 221.7 1010.29 226.329L1064.67 280.715C1069.3 285.342 1072 291.9 1072 298.843C1072 301.543 1071.61 304.242 1070.84 306.943L1016.07 471.257V471.643C1012.99 481.286 1003.34 489 992.157 489H882.614C871.428 489 861.786 481.286 858.315 471.257Z" fill="#FBFBFB"/>
<path d="M0 475.858L6.28552 150.142C6.28552 129.57 22.2852 113 43.4294 113C64.5713 113 81.1422 129.57 81.1422 150.142C81.1422 166.142 70.8568 179.285 56.571 185.571L29.7137 197C15.4291 202.714 6.28552 216.429 6.28552 231.857C6.28552 235.858 6.28552 239.285 9.71437 249.571L79.4282 465.001C80.5712 468.428 81.1422 471.857 81.1422 475.858C81.1422 496.428 64.5713 513 43.4294 513H37.1421C16.6292 513 0 496.371 0 475.858Z" fill="#FBFBFB"/>
<path d="M435.355 114.333C413.916 114.333 387.303 108.937 373.042 127.522C358.034 147.081 364.102 182.202 364.788 205.105C365.735 236.7 391.803 247 420.499 247C474.501 247 526.409 176.13 516.857 126.747C512.341 103.397 478.025 97.5002 457.845 105.799C449.529 109.22 442.783 112.285 442.783 121.316C442.783 122.547 441.244 139.82 439.275 133.341C434.896 118.933 415.544 57.311 435.355 48" stroke="black" stroke-width="3" stroke-linecap="round"/>
<path d="M435.355 131.789C435.355 114.252 440.978 77.2758 463.21 72.6318C466.148 72.018 479.923 43.8947 479.923 67.201C479.923 80.3062 482.352 93.0415 471.67 103.083C460.614 113.476 438.689 115.047 431.641 128.297" stroke="black" stroke-width="3" stroke-linecap="round"/>
</svg>
