<svg width="1163" height="513" viewBox="0 0 1163 513" fill="none" xmlns="http://www.w3.org/2000/svg">
<rect width="6.57177" height="125.853" rx="3.28589" transform="matrix(0.700619 -0.713536 0.773088 0.634299 443.985 433.172)" fill="#7F7F7F"/>
<rect width="6.57177" height="125.853" rx="3.28589" transform="matrix(0.700617 0.713537 -0.77309 0.634297 454.429 428.48)" fill="#7F7F7F"/>
<rect x="448.121" y="287.338" width="6.89306" height="225.577" rx="3.44653" fill="#7F7F7F"/>
<rect x="226" y="11" width="435.642" height="320.092" fill="#D9D9D9"/>
<rect x="211" y="327" width="477" height="17.6429" rx="8.82144" fill="#7F7F7F"/>
<rect x="211" width="477" height="17.6429" rx="8.82144" fill="#7F7F7F"/>
<ellipse cx="451.568" cy="432.891" rx="11.7182" ry="10.7118" fill="#605E5E"/>
<rect x="303.452" y="140" width="6.89306" height="353.236" rx="3.44653" transform="rotate(53.0933 303.452 140)" fill="#7F7F7F"/>
<path d="M973.614 458.228H1083.54C1097.81 458.228 1108.62 445.885 1108.62 432.386L1108.23 322.843C1108.23 308.957 1097.04 298.157 1083.16 297.771H973.614C959.728 297.771 948.929 308.572 948.157 322.072V432.386C948.157 446.657 959.728 458.228 973.614 458.228ZM949.315 495.257L894.543 331.715C893.386 327.857 893 325.543 893 322.843C893 315.9 896.086 309.342 900.714 305.1L955.486 250.329C960.115 245.7 966.672 243 973.614 243H1083.16C1090.49 243 1096.66 245.7 1101.29 250.329L1155.67 304.715C1160.3 309.342 1163 315.9 1163 322.843C1163 325.543 1162.61 328.242 1161.84 330.943L1107.07 495.257V495.643C1103.99 505.286 1094.34 513 1083.16 513H973.614C962.428 513 952.786 505.286 949.315 495.257Z" fill="#FBFBFB"/>
<path d="M0 475.858L6.28552 150.142C6.28552 129.57 22.2852 113 43.4294 113C64.5713 113 81.1422 129.57 81.1422 150.142C81.1422 166.142 70.8568 179.285 56.571 185.571L29.7137 197C15.4291 202.714 6.28552 216.429 6.28552 231.857C6.28552 235.858 6.28552 239.285 9.71437 249.571L79.4282 465.001C80.5712 468.428 81.1422 471.857 81.1422 475.858C81.1422 496.428 64.5713 513 43.4294 513H37.1421C16.6292 513 0 496.371 0 475.858Z" fill="#FBFBFB"/>
<path d="M435.355 114.333C413.916 114.333 387.303 108.937 373.042 127.522C358.034 147.081 364.102 182.202 364.788 205.105C365.735 236.7 391.803 247 420.499 247C474.501 247 526.409 176.13 516.857 126.747C512.341 103.397 478.025 97.5002 457.845 105.799C449.529 109.22 442.783 112.285 442.783 121.316C442.783 122.547 441.244 139.82 439.275 133.341C434.896 118.933 415.544 57.311 435.355 48" stroke="black" stroke-width="3" stroke-linecap="round"/>
<path d="M435.355 131.789C435.355 114.252 440.978 77.2758 463.21 72.6318C466.148 72.018 479.923 43.8947 479.923 67.201C479.923 80.3062 482.352 93.0415 471.67 103.083C460.614 113.476 438.689 115.047 431.641 128.297" stroke="black" stroke-width="3" stroke-linecap="round"/>
<rect x="747" y="345" width="168" height="166" fill="#D9D9D9"/>
<path d="M827.258 374C828.54 376.671 828.753 381.399 828.827 384.332C828.914 387.82 829.802 390.233 831.005 393.454C831.731 395.398 831.179 398.27 831.179 400.315C831.179 404.319 831.405 404.513 826.91 404.513C822.354 404.513 817.691 404.265 813.143 404.513C811.913 404.58 812.092 408.055 812.533 408.872C814.083 411.743 817.216 410.714 817.064 414.523C816.931 417.857 812.52 421.046 815.67 424.694C818.577 428.06 816.736 432.938 818.981 436.318C819.61 437.265 820.292 437.697 821.333 437.972C822.081 438.17 821.695 439.565 821.943 440.112C822.869 442.149 822.553 444.462 822.553 446.65C822.553 449.692 821.802 450.368 819.416 452.462C817.298 454.321 815.854 456.014 813.883 457.991C806.469 465.433 823.019 466.992 827.694 466.992C830.686 466.992 833.677 466.992 836.669 466.992C838.141 466.992 845.97 467.169 846.776 465.862C849.535 461.389 850 455.139 850 449.96C850 446.342 848.664 445.257 844.99 443.744C844.194 443.416 850 439.265 850 437.569C850 435.137 843.195 432.505 841.33 431.353C839.42 430.173 836.312 428.338 835.275 426.308C834.668 425.122 836.959 424.612 837.366 423.765C839.343 419.644 835.592 415.941 841.417 413.917C845.535 412.486 853.601 406.657 844.946 405.199C842.749 404.829 841.041 404.513 838.673 404.513C837.678 404.513 831.812 404.513 834.316 404.513" stroke="black" stroke-width="3" stroke-linecap="round"/>
</svg>
