<svg width="250" height="250" viewBox="0 0 250 250" fill="none" xmlns="http://www.w3.org/2000/svg">
<path d="M74.6429 199.285H176.428C189.642 199.285 199.644 187.857 199.644 175.357L199.287 73.9288C199.287 61.0715 188.928 51.0716 176.071 50.7139H74.6429C61.7856 50.7139 51.7859 60.7148 51.0716 73.2145V175.357C51.0716 188.571 61.7856 199.285 74.6429 199.285ZM52.1434 233.571L1.42871 82.1431C0.3577 78.5716 0 76.4285 0 73.9288C0 67.4996 2.85742 61.4281 7.1425 57.4997L57.8572 6.78584C62.1433 2.49998 68.2148 0 74.6429 0H176.071C182.858 0 188.571 2.49998 192.857 6.78584L243.213 57.1431C247.499 61.4281 250 67.4996 250 73.9288C250 76.4285 249.643 78.9282 248.929 81.4287L198.213 233.571V233.929C195.358 242.858 186.43 250 176.071 250H74.6429C64.2856 250 55.3574 242.858 52.1434 233.571Z" fill="#FBFBFB"/>
</svg>
