<svg width="145" height="253" viewBox="0 0 145 253" fill="none" xmlns="http://www.w3.org/2000/svg">
<rect x="31.5" y="2.5" width="85" height="87" stroke="#14213D" stroke-width="5"/>
<rect x="31.5" y="2.5" width="85" height="87" stroke="#14213D" stroke-width="5"/>
<rect x="31.5" y="2.5" width="85" height="87" stroke="#14213D" stroke-width="5"/>
<rect x="31.5" y="2.5" width="85" height="87" stroke="#14213D" stroke-width="5"/>
<rect x="31.5" y="102.5" width="85" height="94" stroke="#14213D" stroke-width="5"/>
<rect x="31.5" y="102.5" width="85" height="94" stroke="#14213D" stroke-width="5"/>
<rect x="31.5" y="102.5" width="85" height="94" stroke="#14213D" stroke-width="5"/>
<rect x="31.5" y="102.5" width="85" height="94" stroke="#14213D" stroke-width="5"/>
<rect x="50.5" y="89.5" width="47" height="13" stroke="#14213D" stroke-width="5"/>
<rect x="50.5" y="89.5" width="47" height="13" stroke="#14213D" stroke-width="5"/>
<rect x="50.5" y="89.5" width="47" height="13" stroke="#14213D" stroke-width="5"/>
<rect x="50.5" y="89.5" width="47" height="13" stroke="#14213D" stroke-width="5"/>
<path d="M31.5 121.5L11 232L3 250M116.5 123.5L130 228.5L142.5 243M55.261 198.942V250H45.5675M84.9876 198.942V250H95.7581" stroke="#14213D" stroke-width="5"/>
<path d="M79.6558 50C83.4233 56.037 92.7665 64.4887 100 50M46 50C49.7674 56.037 59.1107 64.4887 66.3442 50" stroke="#14213D" stroke-width="5"/>
<path d="M78.991 77.8889C75.6418 72.9578 67.4018 66.5944 61.2348 80.5895" stroke="#14213D" stroke-width="5"/>
</svg>
