<svg width="47" height="40" viewBox="0 0 54 40" fill="none" xmlns="http://www.w3.org/2000/svg">
<path d="M0 0H53.3333V40H0V0Z" fill="#012169"/>
<path d="M6.25 0L26.5833 15.0833L46.8333 0H53.3333V5.16667L33.3333 20.0833L53.3333 34.9167V40H46.6667L26.6667 25.0833L6.75 40H0V35L19.9167 20.1667L0 5.33333V0H6.25Z" fill="white"/>
<path d="M35.3333 23.4167L53.3333 36.6667V40L30.75 23.4167H35.3333ZM20 25.0833L20.5 28L4.5 40H0L20 25.0833ZM53.3333 0V0.25L32.5833 15.9167L32.75 12.25L49.1667 0H53.3333ZM0 0L19.9167 14.6667H14.9167L0 3.5V0Z" fill="#C8102E"/>
<path d="M20.0833 0V40H33.4167V0H20.0833ZM0 13.3333V26.6667H53.3333V13.3333H0Z" fill="white"/>
<path d="M0 16.0833V24.0833H53.3333V16.0833H0ZM22.75 0V40H30.75V0H22.75Z" fill="#C8102E"/>
</svg>
